<?xml version="1.0" encoding="UTF-8" ?>
<svg version="1.1" width="64" height="64" xmlns="http://www.w3.org/2000/svg" shape-rendering="crispEdges">
<rect x="12" y="2" width="40" height="4" fill="#595652" />
<rect x="12" y="6" width="4" height="56" fill="#595652" />
<rect x="16" y="6" width="32" height="6" fill="#FBF236" />
<rect x="48" y="6" width="4" height="56" fill="#595652" />
<rect x="16" y="12" width="6" height="46" fill="#FBF236" />
<rect x="22" y="12" width="20" height="4" fill="#000000" />
<rect x="42" y="12" width="6" height="30" fill="#FBF236" />
<rect x="22" y="16" width="20" height="10" fill="#FBF236" />
<rect x="22" y="26" width="14" height="4" fill="#000000" />
<rect x="36" y="26" width="6" height="16" fill="#FBF236" />
<rect x="22" y="30" width="14" height="12" fill="#FBF236" />
<rect x="22" y="42" width="20" height="4" fill="#000000" />
<rect x="42" y="42" width="2" height="16" fill="#FBF236" />
<rect x="44" y="42" width="4" height="18" fill="#5FCDE4" />
<rect x="22" y="46" width="20" height="12" fill="#FBF236" />
<rect x="16" y="58" width="28" height="4" fill="#595652" />
<rect x="44" y="60" width="4" height="2" fill="#595652" />
</svg>