<?xml version="1.0" encoding="UTF-8" ?>
<svg version="1.1" width="64" height="64" xmlns="http://www.w3.org/2000/svg" shape-rendering="crispEdges">
<rect x="33" y="10" width="3" height="1" fill="#000000" />
<rect x="32" y="11" width="1" height="1" fill="#000000" />
<rect x="33" y="11" width="1" height="1" fill="#443B43" />
<rect x="34" y="11" width="1" height="2" fill="#000000" />
<rect x="28" y="12" width="2" height="1" fill="#000000" />
<rect x="31" y="12" width="1" height="1" fill="#000000" />
<rect x="32" y="12" width="1" height="1" fill="#6B626A" />
<rect x="33" y="12" width="1" height="1" fill="#000000" />
<rect x="35" y="12" width="5" height="1" fill="#000000" />
<rect x="27" y="13" width="2" height="1" fill="#000000" />
<rect x="29" y="13" width="1" height="2" fill="#443B43" />
<rect x="30" y="13" width="2" height="1" fill="#6B626A" />
<rect x="32" y="13" width="2" height="1" fill="#443B43" />
<rect x="34" y="13" width="3" height="1" fill="#6B626A" />
<rect x="37" y="13" width="1" height="2" fill="#443B43" />
<rect x="38" y="13" width="1" height="1" fill="#000000" />
<rect x="26" y="14" width="1" height="1" fill="#000000" />
<rect x="28" y="14" width="1" height="1" fill="#000000" />
<rect x="30" y="14" width="1" height="6" fill="#6B626A" />
<rect x="31" y="14" width="2" height="1" fill="#443B43" />
<rect x="33" y="14" width="3" height="4" fill="#6B626A" />
<rect x="36" y="14" width="1" height="1" fill="#443B43" />
<rect x="38" y="14" width="1" height="1" fill="#443B43" />
<rect x="39" y="14" width="2" height="1" fill="#000000" />
<rect x="24" y="15" width="2" height="2" fill="#000000" />
<rect x="26" y="15" width="1" height="2" fill="#6B626A" />
<rect x="27" y="15" width="1" height="1" fill="#000000" />
<rect x="28" y="15" width="2" height="1" fill="#6B626A" />
<rect x="31" y="15" width="2" height="4" fill="#6B626A" />
<rect x="36" y="15" width="5" height="2" fill="#6B626A" />
<rect x="41" y="15" width="3" height="1" fill="#443B43" />
<rect x="27" y="16" width="1" height="4" fill="#6B626A" />
<rect x="28" y="16" width="1" height="1" fill="#443B43" />
<rect x="29" y="16" width="1" height="4" fill="#6B626A" />
<rect x="41" y="16" width="2" height="2" fill="#443B43" />
<rect x="43" y="16" width="2" height="1" fill="#000000" />
<rect x="25" y="17" width="2" height="1" fill="#000000" />
<rect x="28" y="17" width="1" height="2" fill="#6B626A" />
<rect x="36" y="17" width="3" height="3" fill="#6B626A" />
<rect x="39" y="17" width="2" height="1" fill="#443B43" />
<rect x="25" y="18" width="1" height="1" fill="#000000" />
<rect x="26" y="18" width="1" height="3" fill="#6B626A" />
<rect x="33" y="18" width="1" height="2" fill="#000000" />
<rect x="34" y="18" width="2" height="1" fill="#6B626A" />
<rect x="39" y="18" width="1" height="1" fill="#443B43" />
<rect x="40" y="18" width="1" height="1" fill="#000000" />
<rect x="41" y="18" width="1" height="2" fill="#443B43" />
<rect x="24" y="19" width="1" height="2" fill="#000000" />
<rect x="25" y="19" width="1" height="3" fill="#6B626A" />
<rect x="28" y="19" width="1" height="2" fill="#000000" />
<rect x="31" y="19" width="1" height="3" fill="#443B43" />
<rect x="32" y="19" width="1" height="7" fill="#000000" />
<rect x="34" y="19" width="1" height="2" fill="#000000" />
<rect x="35" y="19" width="1" height="1" fill="#6B626A" />
<rect x="39" y="19" width="1" height="2" fill="#6B626A" />
<rect x="40" y="19" width="1" height="1" fill="#443B43" />
<rect x="42" y="19" width="1" height="1" fill="#000000" />
<rect x="27" y="20" width="1" height="1" fill="#443B43" />
<rect x="29" y="20" width="1" height="1" fill="#000000" />
<rect x="33" y="20" width="1" height="2" fill="#FBDCB7" />
<rect x="35" y="20" width="1" height="1" fill="#000000" />
<rect x="36" y="20" width="1" height="1" fill="#6B626A" />
<rect x="37" y="20" width="1" height="2" fill="#443B43" />
<rect x="38" y="20" width="1" height="2" fill="#000000" />
<rect x="40" y="20" width="3" height="1" fill="#6B626A" />
<rect x="43" y="20" width="1" height="1" fill="#000000" />
<rect x="23" y="21" width="1" height="4" fill="#000000" />
<rect x="24" y="21" width="1" height="3" fill="#6B626A" />
<rect x="26" y="21" width="1" height="1" fill="#443B43" />
<rect x="27" y="21" width="1" height="5" fill="#000000" />
<rect x="28" y="21" width="2" height="1" fill="#FBDCB7" />
<rect x="30" y="21" width="1" height="1" fill="#000000" />
<rect x="34" y="21" width="2" height="2" fill="#FBDCB7" />
<rect x="36" y="21" width="1" height="1" fill="#000000" />
<rect x="39" y="21" width="1" height="1" fill="#000000" />
<rect x="40" y="21" width="1" height="1" fill="#6B626A" />
<rect x="41" y="21" width="4" height="1" fill="#443B43" />
<rect x="45" y="21" width="1" height="2" fill="#000000" />
<rect x="25" y="22" width="1" height="1" fill="#443B43" />
<rect x="26" y="22" width="1" height="1" fill="#000000" />
<rect x="28" y="22" width="1" height="1" fill="#000000" />
<rect x="29" y="22" width="2" height="1" fill="#FBDCB7" />
<rect x="31" y="22" width="1" height="1" fill="#000000" />
<rect x="33" y="22" width="1" height="1" fill="#000000" />
<rect x="36" y="22" width="1" height="1" fill="#FBDCB7" />
<rect x="37" y="22" width="1" height="2" fill="#000000" />
<rect x="38" y="22" width="2" height="3" fill="#FBDCB7" />
<rect x="40" y="22" width="1" height="4" fill="#000000" />
<rect x="41" y="22" width="2" height="4" fill="#6B626A" />
<rect x="43" y="22" width="1" height="1" fill="#443B43" />
<rect x="44" y="22" width="1" height="3" fill="#000000" />
<rect x="25" y="23" width="1" height="5" fill="#000000" />
<rect x="26" y="23" width="1" height="3" fill="#FFFFFF" />
<rect x="28" y="23" width="1" height="3" fill="#FFFFFF" />
<rect x="29" y="23" width="1" height="1" fill="#000000" />
<rect x="30" y="23" width="2" height="6" fill="#FBDCB7" />
<rect x="33" y="23" width="1" height="3" fill="#FFFFFF" />
<rect x="34" y="23" width="1" height="1" fill="#000000" />
<rect x="35" y="23" width="1" height="5" fill="#FBDCB7" />
<rect x="36" y="23" width="1" height="5" fill="#F2B06F" />
<rect x="43" y="23" width="1" height="1" fill="#000000" />
<rect x="24" y="24" width="1" height="1" fill="#443B43" />
<rect x="29" y="24" width="1" height="5" fill="#FBDCB7" />
<rect x="34" y="24" width="1" height="5" fill="#FBDCB7" />
<rect x="37" y="24" width="1" height="2" fill="#FBDCB7" />
<rect x="43" y="24" width="1" height="2" fill="#6B626A" />
<rect x="24" y="25" width="1" height="1" fill="#000000" />
<rect x="38" y="25" width="1" height="2" fill="#FBDCB7" />
<rect x="39" y="25" width="1" height="2" fill="#000000" />
<rect x="44" y="25" width="1" height="2" fill="#443B43" />
<rect x="45" y="25" width="1" height="2" fill="#000000" />
<rect x="26" y="26" width="3" height="2" fill="#FBDCB7" />
<rect x="32" y="26" width="2" height="3" fill="#FBDCB7" />
<rect x="37" y="26" width="1" height="2" fill="#F2B06F" />
<rect x="40" y="26" width="4" height="1" fill="#443B43" />
<rect x="46" y="26" width="1" height="1" fill="#000000" />
<rect x="38" y="27" width="1" height="1" fill="#000000" />
<rect x="39" y="27" width="3" height="1" fill="#443B43" />
<rect x="42" y="27" width="3" height="1" fill="#000000" />
<rect x="26" y="28" width="1" height="1" fill="#000000" />
<rect x="27" y="28" width="2" height="1" fill="#FBDCB7" />
<rect x="35" y="28" width="1" height="1" fill="#F2B06F" />
<rect x="36" y="28" width="2" height="2" fill="#000000" />
<rect x="39" y="28" width="3" height="1" fill="#000000" />
<rect x="27" y="29" width="1" height="1" fill="#000000" />
<rect x="28" y="29" width="6" height="1" fill="#F2B06F" />
<rect x="34" y="29" width="2" height="1" fill="#000000" />
<rect x="26" y="30" width="1" height="1" fill="#000000" />
<rect x="27" y="30" width="1" height="2" fill="#306082" />
<rect x="28" y="30" width="6" height="1" fill="#000000" />
<rect x="34" y="30" width="3" height="3" fill="#FFA600" />
<rect x="37" y="30" width="3" height="1" fill="#000000" />
<rect x="25" y="31" width="1" height="3" fill="#000000" />
<rect x="26" y="31" width="1" height="3" fill="#306082" />
<rect x="28" y="31" width="1" height="1" fill="#000000" />
<rect x="29" y="31" width="1" height="3" fill="#306082" />
<rect x="30" y="31" width="1" height="3" fill="#F2B06F" />
<rect x="31" y="31" width="2" height="3" fill="#306082" />
<rect x="33" y="31" width="1" height="2" fill="#FFA600" />
<rect x="37" y="31" width="1" height="1" fill="#FFA600" />
<rect x="38" y="31" width="2" height="2" fill="#306082" />
<rect x="40" y="31" width="4" height="1" fill="#000000" />
<rect x="27" y="32" width="1" height="8" fill="#000000" />
<rect x="28" y="32" width="1" height="1" fill="#306082" />
<rect x="37" y="32" width="1" height="1" fill="#306082" />
<rect x="40" y="32" width="4" height="1" fill="#306082" />
<rect x="44" y="32" width="1" height="1" fill="#000000" />
<rect x="28" y="33" width="1" height="1" fill="#000000" />
<rect x="33" y="33" width="8" height="1" fill="#000000" />
<rect x="41" y="33" width="2" height="1" fill="#306082" />
<rect x="43" y="33" width="2" height="3" fill="#639BFF" />
<rect x="45" y="33" width="1" height="3" fill="#000000" />
<rect x="26" y="34" width="1" height="1" fill="#000000" />
<rect x="28" y="34" width="1" height="3" fill="#5FCDE4" />
<rect x="29" y="34" width="4" height="1" fill="#000000" />
<rect x="33" y="34" width="3" height="3" fill="#5FCDE4" />
<rect x="36" y="34" width="1" height="1" fill="#000000" />
<rect x="37" y="34" width="3" height="1" fill="#F2B06F" />
<rect x="40" y="34" width="2" height="1" fill="#000000" />
<rect x="42" y="34" width="1" height="2" fill="#639BFF" />
<rect x="21" y="35" width="2" height="1" fill="#000000" />
<rect x="24" y="35" width="2" height="1" fill="#000000" />
<rect x="26" y="35" width="1" height="3" fill="#443B43" />
<rect x="29" y="35" width="1" height="2" fill="#5FCDE4" />
<rect x="30" y="35" width="2" height="1" fill="#FFA600" />
<rect x="32" y="35" width="1" height="2" fill="#5FCDE4" />
<rect x="36" y="35" width="1" height="2" fill="#5FCDE4" />
<rect x="37" y="35" width="1" height="9" fill="#000000" />
<rect x="38" y="35" width="3" height="1" fill="#F2B06F" />
<rect x="41" y="35" width="1" height="1" fill="#000000" />
<rect x="46" y="35" width="1" height="4" fill="#000000" />
<rect x="21" y="36" width="1" height="1" fill="#000000" />
<rect x="22" y="36" width="1" height="5" fill="#FFA600" />
<rect x="23" y="36" width="2" height="1" fill="#000000" />
<rect x="25" y="36" width="1" height="2" fill="#443B43" />
<rect x="30" y="36" width="2" height="1" fill="#5FCDE4" />
<rect x="38" y="36" width="1" height="5" fill="#000000" />
<rect x="39" y="36" width="3" height="1" fill="#F2B06F" />
<rect x="42" y="36" width="1" height="7" fill="#000000" />
<rect x="43" y="36" width="1" height="2" fill="#639BFF" />
<rect x="44" y="36" width="2" height="7" fill="#5B6EE1" />
<rect x="20" y="37" width="1" height="1" fill="#000000" />
<rect x="21" y="37" width="1" height="1" fill="#FFA600" />
<rect x="23" y="37" width="1" height="2" fill="#000000" />
<rect x="24" y="37" width="1" height="1" fill="#443B43" />
<rect x="28" y="37" width="9" height="1" fill="#000000" />
<rect x="39" y="37" width="1" height="3" fill="#000000" />
<rect x="40" y="37" width="2" height="4" fill="#443B43" />
<rect x="21" y="38" width="1" height="2" fill="#000000" />
<rect x="24" y="38" width="2" height="1" fill="#FBDCB7" />
<rect x="26" y="38" width="1" height="3" fill="#000000" />
<rect x="28" y="38" width="2" height="2" fill="#000000" />
<rect x="30" y="38" width="1" height="1" fill="#FFA600" />
<rect x="31" y="38" width="2" height="3" fill="#000000" />
<rect x="33" y="38" width="1" height="1" fill="#FFA600" />
<rect x="34" y="38" width="3" height="3" fill="#000000" />
<rect x="43" y="38" width="1" height="5" fill="#5B6EE1" />
<rect x="23" y="39" width="1" height="6" fill="#FFA600" />
<rect x="24" y="39" width="1" height="5" fill="#000000" />
<rect x="25" y="39" width="1" height="1" fill="#FBDCB7" />
<rect x="30" y="39" width="1" height="4" fill="#000000" />
<rect x="33" y="39" width="1" height="1" fill="#000000" />
<rect x="46" y="39" width="1" height="3" fill="#5B6EE1" />
<rect x="47" y="39" width="1" height="4" fill="#000000" />
<rect x="18" y="40" width="3" height="1" fill="#000000" />
<rect x="21" y="40" width="1" height="1" fill="#FFFFFF" />
<rect x="25" y="40" width="1" height="5" fill="#000000" />
<rect x="27" y="40" width="2" height="1" fill="#306082" />
<rect x="29" y="40" width="1" height="1" fill="#000000" />
<rect x="33" y="40" width="1" height="2" fill="#306082" />
<rect x="39" y="40" width="1" height="1" fill="#443B43" />
<rect x="15" y="41" width="3" height="1" fill="#000000" />
<rect x="18" y="41" width="3" height="1" fill="#FFFFFF" />
<rect x="21" y="41" width="2" height="1" fill="#6B626A" />
<rect x="26" y="41" width="2" height="1" fill="#639BFF" />
<rect x="28" y="41" width="2" height="1" fill="#306082" />
<rect x="31" y="41" width="1" height="1" fill="#000000" />
<rect x="32" y="41" width="1" height="1" fill="#306082" />
<rect x="34" y="41" width="3" height="1" fill="#306082" />
<rect x="38" y="41" width="4" height="2" fill="#FBDCB7" />
<rect x="13" y="42" width="2" height="1" fill="#000000" />
<rect x="15" y="42" width="3" height="1" fill="#FFFFFF" />
<rect x="18" y="42" width="4" height="1" fill="#6B626A" />
<rect x="22" y="42" width="1" height="3" fill="#000000" />
<rect x="26" y="42" width="1" height="3" fill="#443B43" />
<rect x="27" y="42" width="2" height="1" fill="#000000" />
<rect x="29" y="42" width="1" height="1" fill="#306082" />
<rect x="32" y="42" width="1" height="1" fill="#000000" />
<rect x="33" y="42" width="2" height="1" fill="#639BFF" />
<rect x="35" y="42" width="2" height="1" fill="#306082" />
<rect x="46" y="42" width="1" height="2" fill="#000000" />
<rect x="10" y="43" width="3" height="1" fill="#000000" />
<rect x="13" y="43" width="2" height="1" fill="#FFFFFF" />
<rect x="15" y="43" width="4" height="1" fill="#6B626A" />
<rect x="19" y="43" width="3" height="1" fill="#000000" />
<rect x="27" y="43" width="1" height="2" fill="#443B43" />
<rect x="28" y="43" width="2" height="1" fill="#000000" />
<rect x="33" y="43" width="1" height="1" fill="#000000" />
<rect x="34" y="43" width="2" height="1" fill="#639BFF" />
<rect x="36" y="43" width="1" height="1" fill="#000000" />
<rect x="38" y="43" width="1" height="1" fill="#000000" />
<rect x="39" y="43" width="2" height="1" fill="#FBDCB7" />
<rect x="41" y="43" width="1" height="1" fill="#000000" />
<rect x="42" y="43" width="4" height="1" fill="#FFA600" />
<rect x="9" y="44" width="1" height="1" fill="#000000" />
<rect x="10" y="44" width="3" height="1" fill="#FFFFFF" />
<rect x="13" y="44" width="3" height="1" fill="#6B626A" />
<rect x="16" y="44" width="3" height="1" fill="#000000" />
<rect x="21" y="44" width="1" height="1" fill="#000000" />
<rect x="28" y="44" width="1" height="3" fill="#000000" />
<rect x="34" y="44" width="1" height="2" fill="#000000" />
<rect x="35" y="44" width="2" height="1" fill="#443B43" />
<rect x="37" y="44" width="2" height="2" fill="#52310D" />
<rect x="39" y="44" width="2" height="1" fill="#000000" />
<rect x="41" y="44" width="3" height="1" fill="#FFA600" />
<rect x="44" y="44" width="2" height="1" fill="#000000" />
<rect x="8" y="45" width="1" height="1" fill="#000000" />
<rect x="9" y="45" width="4" height="1" fill="#6B626A" />
<rect x="13" y="45" width="3" height="1" fill="#000000" />
<rect x="23" y="45" width="2" height="1" fill="#000000" />
<rect x="25" y="45" width="3" height="2" fill="#52310D" />
<rect x="35" y="45" width="1" height="1" fill="#000000" />
<rect x="36" y="45" width="1" height="1" fill="#443B43" />
<rect x="39" y="45" width="1" height="3" fill="#52310D" />
<rect x="40" y="45" width="4" height="1" fill="#000000" />
<rect x="9" y="46" width="4" height="1" fill="#000000" />
<rect x="22" y="46" width="2" height="1" fill="#000000" />
<rect x="24" y="46" width="1" height="1" fill="#FFA600" />
<rect x="36" y="46" width="2" height="1" fill="#000000" />
<rect x="38" y="46" width="1" height="2" fill="#52310D" />
<rect x="40" y="46" width="1" height="2" fill="#000000" />
<rect x="21" y="47" width="1" height="1" fill="#000000" />
<rect x="22" y="47" width="5" height="1" fill="#52310D" />
<rect x="27" y="47" width="1" height="2" fill="#000000" />
<rect x="37" y="47" width="1" height="1" fill="#000000" />
<rect x="22" y="48" width="2" height="1" fill="#000000" />
<rect x="24" y="48" width="3" height="1" fill="#52310D" />
<rect x="38" y="48" width="2" height="1" fill="#000000" />
<rect x="24" y="49" width="3" height="1" fill="#000000" />
</svg>